<svg viewBox="0 0 940 940" xmlns="http://www.w3.org/2000/svg">
  <defs>
    <marker id="arr" viewBox="0 0 10 10" refX="9" refY="5" markerWidth="7" markerHeight="7" orient="auto-start-reverse"><path d="M 0 0 L 10 5 L 0 10 z" fill="#666"/></marker>
    <marker id="arr-thin" viewBox="0 0 10 10" refX="9" refY="5" markerWidth="6" markerHeight="6" orient="auto-start-reverse"><path d="M 0 0 L 10 5 L 0 10 z" fill="#888"/></marker>
    <marker id="arr-red" viewBox="0 0 10 10" refX="9" refY="5" markerWidth="6" markerHeight="6" orient="auto-start-reverse"><path d="M 0 0 L 10 5 L 0 10 z" fill="#c53030"/></marker>
  </defs>
  <style>text{font-family:-apple-system,BlinkMacSystemFont,"PingFang SC","Microsoft YaHei",sans-serif;fill:#1a1a1a}.title{font-size:20px;font-weight:700}.subtitle{font-size:12px;fill:#666}.box-title{font-size:13px;font-weight:600}.box-sub{font-size:11px;fill:#666}.flow-line{fill:none;stroke:#666;stroke-width:1.5}.thin-line{fill:none;stroke:#888;stroke-width:1;stroke-dasharray:4 3}.assert-line{fill:none;stroke:#c53030;stroke-width:1.5}.label{font-size:10px;fill:#666}.band-title{font-size:12px;font-weight:600;fill:#444}</style>
  <text x="470" y="30" text-anchor="middle" class="title">ZZ-AI 数据分析架构 v0.4 · workflow-first</text>
  <text x="470" y="50" text-anchor="middle" class="subtitle">workflow 打底 · agent 只在 spawn 节点做判断 · codex exec 仅 fallback</text>
  <rect x="360" y="72" width="220" height="42" rx="6" fill="#f4f4f5" stroke="#a1a1aa"/>
  <text x="470" y="90" text-anchor="middle" class="box-title">用户 @ 飞书机器人</text>
  <text x="470" y="106" text-anchor="middle" class="box-sub">iPhone 14 周报 / 为什么跌了</text>
  <rect x="360" y="132" width="220" height="42" rx="6" fill="#f4f4f5" stroke="#a1a1aa"/>
  <text x="470" y="150" text-anchor="middle" class="box-title">event_handler</text>
  <text x="470" y="166" text-anchor="middle" class="box-sub">webhook + 已签收回执</text>
  <line x1="470" y1="114" x2="470" y2="132" class="flow-line" marker-end="url(#arr)"/>
  <rect x="330" y="194" width="280" height="46" rx="6" fill="#eef2ff" stroke="#4f46e5"/>
  <text x="470" y="213" text-anchor="middle" class="box-title">Router · LLM 出 call plan</text>
  <text x="470" y="230" text-anchor="middle" class="box-sub">gpt-5.4-mini · 查 skill 目录出 skills[]</text>
  <line x1="470" y1="174" x2="470" y2="194" class="flow-line" marker-end="url(#arr)"/>
  <polygon points="470,260 570,304 470,348 370,304" fill="#fef3c7" stroke="#b45309"/>
  <text x="470" y="299" text-anchor="middle" class="box-title">dispatch</text>
  <text x="470" y="315" text-anchor="middle" class="box-sub">读 skill.type</text>
  <line x1="470" y1="240" x2="470" y2="260" class="flow-line" marker-end="url(#arr)"/>
  <text x="252" y="356" class="label" text-anchor="middle">type = workflow · 命中 skill</text>
  <path d="M 370 304 L 260 304 L 260 370" class="flow-line" marker-end="url(#arr)"/>
  <text x="700" y="356" class="label" text-anchor="middle">skills=[] · fallback</text>
  <path d="M 570 304 L 680 304 L 680 370" class="flow-line" marker-end="url(#arr)"/>
  <rect x="70" y="370" width="380" height="330" rx="10" fill="#f0fdf4" stroke="#16a34a"/>
  <text x="260" y="390" text-anchor="middle" class="box-title" style="fill:#166534">Workflow 引擎（Python 模块）</text>
  <text x="260" y="405" text-anchor="middle" class="box-sub">Pydantic 契约 · assertion 守门 · 秒级</text>
  <rect x="100" y="418" width="140" height="36" rx="5" fill="#ffffff" stroke="#16a34a"/>
  <text x="170" y="435" text-anchor="middle" class="box-title" style="font-size:12px">① 确定步</text>
  <text x="170" y="448" text-anchor="middle" class="box-sub">SQL · Excel · 模板</text>
  <rect x="278" y="418" width="140" height="36" rx="5" fill="#ffe4e6" stroke="#c53030"/>
  <text x="348" y="435" text-anchor="middle" class="box-title" style="font-size:12px;fill:#7f1d1d">assertion</text>
  <text x="348" y="448" text-anchor="middle" class="box-sub">分区 · UV&gt;0 · schema</text>
  <line x1="240" y1="436" x2="278" y2="436" class="flow-line" marker-end="url(#arr-thin)"/>
  <rect x="100" y="474" width="318" height="88" rx="5" fill="#fef3c7" stroke="#b45309" stroke-width="1.8"/>
  <text x="259" y="494" text-anchor="middle" class="box-title" style="fill:#78350f">② spawn_agent（受控 LLM call）</text>
  <text x="259" y="510" text-anchor="middle" class="box-sub" style="font-size:10.5px">不是 codex · 无工具权 · 单次调用</text>
  <line x1="110" y1="518" x2="408" y2="518" stroke="#b45309" stroke-width="0.6" stroke-dasharray="2 2"/>
  <text x="120" y="533" class="box-sub" style="font-size:10px">in:  AgentStepInput</text>
  <text x="120" y="547" class="box-sub" style="font-size:10px">     task · context · principles_scope · output_schema</text>
  <text x="120" y="558" class="box-sub" style="font-size:10px">out: BaseModel + confidence + reasoning</text>
  <path d="M 348 454 L 348 474" class="flow-line" marker-end="url(#arr-thin)"/>
  <path d="M 170 454 L 170 462 L 259 462 L 259 474" class="flow-line" marker-end="url(#arr-thin)"/>
  <rect x="100" y="582" width="140" height="36" rx="5" fill="#ffe4e6" stroke="#c53030"/>
  <text x="170" y="600" text-anchor="middle" class="box-title" style="font-size:11px;fill:#7f1d1d">review_agent_step</text>
  <text x="170" y="612" text-anchor="middle" class="box-sub" style="font-size:10px">scope 内 §条自检</text>
  <line x1="259" y1="562" x2="170" y2="562" stroke="#c53030" stroke-width="1" stroke-dasharray="3 2"/>
  <path d="M 170 562 L 170 582" class="assert-line" marker-end="url(#arr-red)"/>
  <rect x="278" y="582" width="140" height="36" rx="5" fill="#ffffff" stroke="#16a34a"/>
  <text x="348" y="600" text-anchor="middle" class="box-title" style="font-size:12px">③ 拼装模板</text>
  <text x="348" y="612" text-anchor="middle" class="box-sub">Markdown / 飞书 doc</text>
  <line x1="240" y1="600" x2="278" y2="600" class="flow-line" marker-end="url(#arr-thin)"/>
  <rect x="190" y="638" width="140" height="36" rx="5" fill="#ffe4e6" stroke="#c53030"/>
  <text x="260" y="656" text-anchor="middle" class="box-title" style="font-size:11px;fill:#7f1d1d">最终 assertion</text>
  <text x="260" y="668" text-anchor="middle" class="box-sub" style="font-size:10px">业务规则 · 消息长度</text>
  <line x1="348" y1="618" x2="348" y2="628" class="flow-line"/>
  <path d="M 348 628 L 260 628 L 260 638" class="flow-line" marker-end="url(#arr-thin)"/>
  <rect x="500" y="370" width="360" height="330" rx="10" fill="#fef4ff" stroke="#a855f7"/>
  <text x="680" y="390" text-anchor="middle" class="box-title" style="fill:#6b21a8">Fallback · codex exec</text>
  <text x="680" y="405" text-anchor="middle" class="box-sub">只在 skills=[] 或全 low-confidence 时</text>
  <rect x="530" y="424" width="300" height="60" rx="5" fill="#ffffff" stroke="#a855f7"/>
  <text x="680" y="443" text-anchor="middle" class="box-title" style="font-size:12px">完整 agent 循环</text>
  <text x="680" y="459" text-anchor="middle" class="box-sub">plan · MCP tool call · reasoning · loop</text>
  <text x="680" y="475" text-anchor="middle" class="box-sub" style="font-size:10px;fill:#7c2d92">gpt-5.5 xhigh · 分钟级</text>
  <rect x="530" y="502" width="300" height="52" rx="5" fill="#ffe4e6" stroke="#c53030"/>
  <text x="680" y="521" text-anchor="middle" class="box-title" style="font-size:12px;fill:#7f1d1d">完整 review_gate</text>
  <text x="680" y="537" text-anchor="middle" class="box-sub">§1-§7 对抗审查 · 2 次 retry</text>
  <text x="680" y="551" text-anchor="middle" class="box-sub" style="font-size:10px">FAIL 则带 issues 让 agent 重写</text>
  <line x1="680" y1="484" x2="680" y2="502" class="flow-line" marker-end="url(#arr)"/>
  <rect x="500" y="580" width="360" height="120" rx="5" fill="#fff" stroke="#a855f7" stroke-dasharray="4 3"/>
  <text x="680" y="602" text-anchor="middle" class="box-title" style="font-size:12px;fill:#6b21a8">兜底路径的特征</text>
  <text x="510" y="620" class="box-sub" style="font-size:10.5px">• 有工具权（自由调 MCP）</text>
  <text x="510" y="636" class="box-sub" style="font-size:10.5px">• 无 Pydantic 输出契约</text>
  <text x="510" y="652" class="box-sub" style="font-size:10.5px">• 完整 review_gate 兜底</text>
  <text x="510" y="668" class="box-sub" style="font-size:10.5px">• 慢但兼容开放式问题</text>
  <text x="510" y="684" class="box-sub" style="font-size:10px;fill:#7c2d92">→ 未来把命中场景抽成 workflow skill</text>
  <path d="M 260 674 L 260 720 L 470 720 L 470 736" class="flow-line" marker-end="url(#arr)"/>
  <path d="M 680 700 L 680 720 L 470 720" class="flow-line"/>
  <rect x="360" y="736" width="220" height="42" rx="6" fill="#f4f4f5" stroke="#a1a1aa"/>
  <text x="470" y="754" text-anchor="middle" class="box-title">交付飞书 · 写文档 + 回消息</text>
  <text x="470" y="770" text-anchor="middle" class="box-sub">transfer_doc_owner 过户给你</text>
  <rect x="60" y="806" width="820" height="118" rx="10" fill="#f4f4f5" stroke="#a1a1aa" stroke-dasharray="6 4"/>
  <text x="470" y="826" text-anchor="middle" class="band-title">支撑层（workflow 主干调用 · agent 不直接调）</text>
  <rect x="90" y="840" width="180" height="70" rx="5" fill="#ffffff" stroke="#71717a"/>
  <text x="180" y="859" text-anchor="middle" class="box-title" style="font-size:12px">MCP 原子工具</text>
  <text x="180" y="874" text-anchor="middle" class="box-sub" style="font-size:10px">data_tools / lark_tools</text>
  <text x="180" y="887" text-anchor="middle" class="box-sub" style="font-size:10px">knowledge_base</text>
  <text x="180" y="900" text-anchor="middle" class="box-sub" style="font-size:10px">bot 身份直调</text>
  <rect x="290" y="840" width="180" height="70" rx="5" fill="#ffffff" stroke="#71717a"/>
  <text x="380" y="859" text-anchor="middle" class="box-title" style="font-size:12px">飞书 base 知识库</text>
  <text x="380" y="874" text-anchor="middle" class="box-sub" style="font-size:10px">04 口径 · 02 字段</text>
  <text x="380" y="887" text-anchor="middle" class="box-sub" style="font-size:10px">03 维值 · 01 底表</text>
  <text x="380" y="900" text-anchor="middle" class="box-sub" style="font-size:10px">source of truth</text>
  <rect x="490" y="840" width="180" height="70" rx="5" fill="#ffffff" stroke="#71717a"/>
  <text x="580" y="859" text-anchor="middle" class="box-title" style="font-size:12px">principles/core.md</text>
  <text x="580" y="874" text-anchor="middle" class="box-sub" style="font-size:10px">§1-§9 业务原则</text>
  <text x="580" y="887" text-anchor="middle" class="box-sub" style="font-size:10px">按 principles_scope</text>
  <text x="580" y="900" text-anchor="middle" class="box-sub" style="font-size:10px">切片喂 spawn_agent</text>
  <rect x="690" y="840" width="180" height="70" rx="5" fill="#ffffff" stroke="#71717a"/>
  <text x="780" y="859" text-anchor="middle" class="box-title" style="font-size:12px">assertion 库</text>
  <text x="780" y="874" text-anchor="middle" class="box-sub" style="font-size:10px">MVP 手写</text>
  <text x="780" y="887" text-anchor="middle" class="box-sub" style="font-size:10px">M2 由 02 字段表</text>
  <text x="780" y="900" text-anchor="middle" class="box-sub" style="font-size:10px">规则自动生成</text>
</svg>
